<mxfile host="app.diagrams.net" modified="2021-08-17T11:33:42.928Z" agent="5.0 (Windows NT 10.0; Win64; x64) AppleWebKit/537.36 (KHTML, like Gecko) Chrome/92.0.4515.131 Safari/537.36" etag="gl4y1scvtl3QMB357K1Z" version="14.9.7" type="github">
  <diagram id="UwSq_-wmNXu3wWINkA9W" name="Page-1">
    <mxGraphModel dx="5688" dy="3048" grid="1" gridSize="10" guides="1" tooltips="1" connect="1" arrows="1" fold="1" page="1" pageScale="1" pageWidth="3300" pageHeight="2339" math="0" shadow="0">
      <root>
        <mxCell id="0" />
        <mxCell id="1" parent="0" />
      </root>
    </mxGraphModel>
  </diagram>
</mxfile>
